<?xml version="1.0" encoding="utf-8"?>
<!-- Generator: Adobe Illustrator 24.0.1, SVG Export Plug-In . SVG Version: 6.00 Build 0)  -->
<svg version="1.1" id="Layer_1" xmlns="http://www.w3.org/2000/svg" xmlns:xlink="http://www.w3.org/1999/xlink" x="0px" y="0px"
	 viewBox="0 0 48 48" style="enable-background:new 0 0 48 48;" xml:space="preserve">
<style type="text/css">
	.st0{fill:#007DC3;}
	.st1{fill:#FFFFFF;}
</style>
<rect class="st0" width="47.7" height="47.7"/>
<g>
	<g>
		<g>
			<g>
				<path class="st1" d="M27,16.4l-0.7-0.8c-0.9-1.1-2.4-1.1-3.5-0.2s-1.4,2.4-0.5,3.5c0,0,0.1,0.1,0.3,0.4"/>
				<path class="st1" d="M22.7,19.3c2.1,2.5,4.8,5.8,4.8,5.8c3.5,4.2,1.9,9.4-2.8,12.3C20.6,40,13,39.1,10.4,34.8
					c2,6,8.8,9.9,16.4,8c6.5-1.6,13.8-10,5.8-19.7L26.7,16"/>
			</g>
			<path class="st1" d="M23.3,28.3c-2-2.4-4.5-5.4-4.5-5.4c-3.5-4.2-1.9-9.4,2.8-12.3C25.8,8,33.4,8.9,36,13.2c-2-6-8.8-9.9-16.4-8
				c-6.5,1.6-13.8,10-5.8,19.7l5.7,6.8"/>
			<path class="st1" d="M18.5,30.6l1.3,1.6c0.9,1.1,2.4,1.1,3.5,0.2s1.4-2.4,0.5-3.5c0,0-0.5-0.6-1.3-1.6"/>
		</g>
	</g>
	<g>
		<path class="st1" d="M37,34.9c0-0.7,0.5-1.2,1.2-1.2c0.7,0,1.2,0.5,1.2,1.2c0,0.7-0.5,1.3-1.2,1.3C37.5,36.2,37,35.6,37,34.9z
			 M38.2,36.4c0.8,0,1.5-0.6,1.5-1.5c0-0.9-0.7-1.5-1.5-1.5c-0.8,0-1.5,0.6-1.5,1.5C36.6,35.8,37.4,36.4,38.2,36.4z M37.9,35h0.3
			l0.5,0.8h0.3L38.4,35c0.3,0,0.4-0.2,0.4-0.5c0-0.3-0.2-0.5-0.6-0.5h-0.7v1.7h0.3C37.9,35.8,37.9,35,37.9,35z M37.9,34.8v-0.5h0.4
			c0.2,0,0.4,0,0.4,0.3c0,0.3-0.2,0.3-0.4,0.3L37.9,34.8L37.9,34.8z"/>
	</g>
</g>
</svg>
