<?xml version="1.0" encoding="utf-8"?>
<!-- Generator: Adobe Illustrator 24.0.1, SVG Export Plug-In . SVG Version: 6.00 Build 0)  -->
<svg version="1.1" id="Log" xmlns="http://www.w3.org/2000/svg" xmlns:xlink="http://www.w3.org/1999/xlink" x="0px" y="0px"
	 viewBox="0 0 16 16" style="enable-background:new 0 0 16 16;" xml:space="preserve">
<style type="text/css">
	.st0{fill:none;}
	.st1{fill:#5D5D5D;}
</style>
<rect id="svgToolTipPane" y="1" class="st0" width="14" height="14"/>
<path id="iconColor" class="st1" d="M13,1H3C2.5,1,2,1.5,2,2v12c0,0.6,0.5,1,1,1h10c0.6,0,1-0.4,1-1V2C14,1.5,13.6,1,13,1z M13,14H3
	V3h10V14z M12,8H4V7h8V8z M12,5H4v1h8V5z M12,9H4v1h8V9z M12,11H4v1h8V11z"/>
</svg>
